<mxfile host="app.diagrams.net" agent="Mozilla/5.0 (Windows NT 10.0; Win64; x64) AppleWebKit/537.36 (KHTML, like Gecko) Chrome/137.0.0.0 Safari/537.36" version="28.0.1">
  <diagram id="C5RBs43oDa-KdzZeNtuy" name="Page-1">
    <mxGraphModel dx="1209" dy="694" grid="1" gridSize="10" guides="1" tooltips="1" connect="1" arrows="1" fold="1" page="1" pageScale="1" pageWidth="827" pageHeight="1169" math="0" shadow="0">
      <root>
        <mxCell id="WIyWlLk6GJQsqaUBKTNV-0" />
        <mxCell id="WIyWlLk6GJQsqaUBKTNV-1" parent="WIyWlLk6GJQsqaUBKTNV-0" />
        <mxCell id="WIyWlLk6GJQsqaUBKTNV-2" value="" style="rounded=0;html=1;jettySize=auto;orthogonalLoop=1;fontSize=11;endArrow=block;endFill=0;endSize=8;strokeWidth=1;shadow=0;labelBackgroundColor=none;edgeStyle=orthogonalEdgeStyle;" parent="WIyWlLk6GJQsqaUBKTNV-1" source="WIyWlLk6GJQsqaUBKTNV-3" edge="1">
          <mxGeometry relative="1" as="geometry">
            <mxPoint x="298" y="132" as="targetPoint" />
          </mxGeometry>
        </mxCell>
        <mxCell id="WIyWlLk6GJQsqaUBKTNV-3" value="User input 2 integer" style="rounded=1;whiteSpace=wrap;html=1;fontSize=12;glass=0;strokeWidth=1;shadow=0;" parent="WIyWlLk6GJQsqaUBKTNV-1" vertex="1">
          <mxGeometry x="238" y="42" width="120" height="40" as="geometry" />
        </mxCell>
        <mxCell id="QFGm3sFwuiG0VtS_ELD2-6" value="" style="edgeStyle=orthogonalEdgeStyle;rounded=0;orthogonalLoop=1;jettySize=auto;html=1;" edge="1" parent="WIyWlLk6GJQsqaUBKTNV-1" source="QFGm3sFwuiG0VtS_ELD2-0" target="QFGm3sFwuiG0VtS_ELD2-5">
          <mxGeometry relative="1" as="geometry" />
        </mxCell>
        <mxCell id="QFGm3sFwuiG0VtS_ELD2-0" value="compute sum" style="rounded=1;whiteSpace=wrap;html=1;" vertex="1" parent="WIyWlLk6GJQsqaUBKTNV-1">
          <mxGeometry x="238" y="130" width="120" height="60" as="geometry" />
        </mxCell>
        <mxCell id="QFGm3sFwuiG0VtS_ELD2-8" value="" style="edgeStyle=orthogonalEdgeStyle;rounded=0;orthogonalLoop=1;jettySize=auto;html=1;" edge="1" parent="WIyWlLk6GJQsqaUBKTNV-1" source="QFGm3sFwuiG0VtS_ELD2-5" target="QFGm3sFwuiG0VtS_ELD2-7">
          <mxGeometry relative="1" as="geometry" />
        </mxCell>
        <mxCell id="QFGm3sFwuiG0VtS_ELD2-12" value="" style="edgeStyle=orthogonalEdgeStyle;rounded=0;orthogonalLoop=1;jettySize=auto;html=1;" edge="1" parent="WIyWlLk6GJQsqaUBKTNV-1" source="QFGm3sFwuiG0VtS_ELD2-5" target="QFGm3sFwuiG0VtS_ELD2-11">
          <mxGeometry relative="1" as="geometry" />
        </mxCell>
        <mxCell id="QFGm3sFwuiG0VtS_ELD2-5" value="sum is even&lt;div&gt;or&lt;br&gt;&lt;div&gt;&amp;nbsp;3rd iteration&lt;/div&gt;&lt;/div&gt;" style="rhombus;whiteSpace=wrap;html=1;rounded=1;" vertex="1" parent="WIyWlLk6GJQsqaUBKTNV-1">
          <mxGeometry x="242" y="260" width="112" height="100" as="geometry" />
        </mxCell>
        <mxCell id="QFGm3sFwuiG0VtS_ELD2-18" value="" style="edgeStyle=orthogonalEdgeStyle;rounded=0;orthogonalLoop=1;jettySize=auto;html=1;" edge="1" parent="WIyWlLk6GJQsqaUBKTNV-1" source="QFGm3sFwuiG0VtS_ELD2-7" target="QFGm3sFwuiG0VtS_ELD2-17">
          <mxGeometry relative="1" as="geometry" />
        </mxCell>
        <mxCell id="QFGm3sFwuiG0VtS_ELD2-7" value="compute product" style="whiteSpace=wrap;html=1;rounded=1;" vertex="1" parent="WIyWlLk6GJQsqaUBKTNV-1">
          <mxGeometry x="414" y="280" width="120" height="60" as="geometry" />
        </mxCell>
        <mxCell id="QFGm3sFwuiG0VtS_ELD2-9" value="YES" style="text;html=1;align=center;verticalAlign=middle;whiteSpace=wrap;rounded=0;" vertex="1" parent="WIyWlLk6GJQsqaUBKTNV-1">
          <mxGeometry x="338" y="270" width="60" height="30" as="geometry" />
        </mxCell>
        <mxCell id="QFGm3sFwuiG0VtS_ELD2-11" value="Append random number(0-9)&lt;div&gt;and&amp;nbsp;&lt;/div&gt;&lt;div&gt;iteration+1&lt;/div&gt;" style="whiteSpace=wrap;html=1;rounded=1;" vertex="1" parent="WIyWlLk6GJQsqaUBKTNV-1">
          <mxGeometry x="60" y="280" width="120" height="60" as="geometry" />
        </mxCell>
        <mxCell id="QFGm3sFwuiG0VtS_ELD2-16" value="NO" style="text;html=1;align=center;verticalAlign=middle;resizable=0;points=[];autosize=1;strokeColor=none;fillColor=none;" vertex="1" parent="WIyWlLk6GJQsqaUBKTNV-1">
          <mxGeometry x="210" y="268" width="40" height="30" as="geometry" />
        </mxCell>
        <mxCell id="QFGm3sFwuiG0VtS_ELD2-35" value="" style="edgeStyle=orthogonalEdgeStyle;rounded=0;orthogonalLoop=1;jettySize=auto;html=1;" edge="1" parent="WIyWlLk6GJQsqaUBKTNV-1" source="QFGm3sFwuiG0VtS_ELD2-17" target="QFGm3sFwuiG0VtS_ELD2-34">
          <mxGeometry relative="1" as="geometry" />
        </mxCell>
        <mxCell id="QFGm3sFwuiG0VtS_ELD2-41" value="" style="edgeStyle=orthogonalEdgeStyle;rounded=0;orthogonalLoop=1;jettySize=auto;html=1;" edge="1" parent="WIyWlLk6GJQsqaUBKTNV-1" source="QFGm3sFwuiG0VtS_ELD2-17" target="QFGm3sFwuiG0VtS_ELD2-40">
          <mxGeometry relative="1" as="geometry" />
        </mxCell>
        <mxCell id="QFGm3sFwuiG0VtS_ELD2-17" value="product is even&lt;div&gt;or&lt;br&gt;&lt;div&gt;&amp;nbsp;3rd iteration&lt;/div&gt;&lt;/div&gt;" style="rhombus;whiteSpace=wrap;html=1;rounded=1;" vertex="1" parent="WIyWlLk6GJQsqaUBKTNV-1">
          <mxGeometry x="415" y="410" width="119" height="110" as="geometry" />
        </mxCell>
        <mxCell id="QFGm3sFwuiG0VtS_ELD2-21" value="" style="endArrow=classic;html=1;rounded=0;exitX=0.5;exitY=0;exitDx=0;exitDy=0;entryX=-0.022;entryY=0.378;entryDx=0;entryDy=0;entryPerimeter=0;" edge="1" parent="WIyWlLk6GJQsqaUBKTNV-1" source="QFGm3sFwuiG0VtS_ELD2-11" target="QFGm3sFwuiG0VtS_ELD2-0">
          <mxGeometry width="50" height="50" relative="1" as="geometry">
            <mxPoint x="110" y="170" as="sourcePoint" />
            <mxPoint x="160" y="120" as="targetPoint" />
            <Array as="points">
              <mxPoint x="120" y="153" />
            </Array>
          </mxGeometry>
        </mxCell>
        <mxCell id="QFGm3sFwuiG0VtS_ELD2-34" value="Append random number(0-9)&lt;div&gt;and&amp;nbsp;&lt;/div&gt;&lt;div&gt;iteration+1&lt;/div&gt;" style="whiteSpace=wrap;html=1;rounded=1;" vertex="1" parent="WIyWlLk6GJQsqaUBKTNV-1">
          <mxGeometry x="613.5" y="435" width="120" height="60" as="geometry" />
        </mxCell>
        <mxCell id="QFGm3sFwuiG0VtS_ELD2-36" value="NO" style="text;html=1;align=center;verticalAlign=middle;resizable=0;points=[];autosize=1;strokeColor=none;fillColor=none;" vertex="1" parent="WIyWlLk6GJQsqaUBKTNV-1">
          <mxGeometry x="534" y="428" width="40" height="30" as="geometry" />
        </mxCell>
        <mxCell id="QFGm3sFwuiG0VtS_ELD2-37" value="" style="endArrow=classic;html=1;rounded=0;entryX=1;entryY=0.5;entryDx=0;entryDy=0;" edge="1" parent="WIyWlLk6GJQsqaUBKTNV-1" target="QFGm3sFwuiG0VtS_ELD2-7">
          <mxGeometry width="50" height="50" relative="1" as="geometry">
            <mxPoint x="670" y="430" as="sourcePoint" />
            <mxPoint x="670" y="330" as="targetPoint" />
            <Array as="points">
              <mxPoint x="670" y="310" />
            </Array>
          </mxGeometry>
        </mxCell>
        <mxCell id="QFGm3sFwuiG0VtS_ELD2-43" value="" style="edgeStyle=orthogonalEdgeStyle;rounded=0;orthogonalLoop=1;jettySize=auto;html=1;" edge="1" parent="WIyWlLk6GJQsqaUBKTNV-1" source="QFGm3sFwuiG0VtS_ELD2-40" target="QFGm3sFwuiG0VtS_ELD2-42">
          <mxGeometry relative="1" as="geometry" />
        </mxCell>
        <mxCell id="QFGm3sFwuiG0VtS_ELD2-51" value="" style="edgeStyle=orthogonalEdgeStyle;rounded=0;orthogonalLoop=1;jettySize=auto;html=1;" edge="1" parent="WIyWlLk6GJQsqaUBKTNV-1" source="QFGm3sFwuiG0VtS_ELD2-40" target="QFGm3sFwuiG0VtS_ELD2-50">
          <mxGeometry relative="1" as="geometry" />
        </mxCell>
        <mxCell id="QFGm3sFwuiG0VtS_ELD2-40" value="Last value is&lt;div&gt;&amp;nbsp;not Zero&lt;/div&gt;" style="rhombus;whiteSpace=wrap;html=1;rounded=1;" vertex="1" parent="WIyWlLk6GJQsqaUBKTNV-1">
          <mxGeometry x="216" y="410" width="119" height="110" as="geometry" />
        </mxCell>
        <mxCell id="QFGm3sFwuiG0VtS_ELD2-45" value="" style="edgeStyle=orthogonalEdgeStyle;rounded=0;orthogonalLoop=1;jettySize=auto;html=1;" edge="1" parent="WIyWlLk6GJQsqaUBKTNV-1" source="QFGm3sFwuiG0VtS_ELD2-42">
          <mxGeometry relative="1" as="geometry">
            <mxPoint x="275.5" y="755" as="targetPoint" />
          </mxGeometry>
        </mxCell>
        <mxCell id="QFGm3sFwuiG0VtS_ELD2-42" value="compute devision" style="whiteSpace=wrap;html=1;rounded=1;" vertex="1" parent="WIyWlLk6GJQsqaUBKTNV-1">
          <mxGeometry x="215.5" y="625" width="120" height="60" as="geometry" />
        </mxCell>
        <mxCell id="QFGm3sFwuiG0VtS_ELD2-48" value="" style="edgeStyle=orthogonalEdgeStyle;rounded=0;orthogonalLoop=1;jettySize=auto;html=1;" edge="1" parent="WIyWlLk6GJQsqaUBKTNV-1" source="QFGm3sFwuiG0VtS_ELD2-46" target="QFGm3sFwuiG0VtS_ELD2-47">
          <mxGeometry relative="1" as="geometry" />
        </mxCell>
        <mxCell id="QFGm3sFwuiG0VtS_ELD2-46" value="print Result" style="shape=parallelogram;perimeter=parallelogramPerimeter;whiteSpace=wrap;html=1;fixedSize=1;" vertex="1" parent="WIyWlLk6GJQsqaUBKTNV-1">
          <mxGeometry x="218" y="750" width="120" height="60" as="geometry" />
        </mxCell>
        <mxCell id="QFGm3sFwuiG0VtS_ELD2-47" value="end" style="ellipse;whiteSpace=wrap;html=1;" vertex="1" parent="WIyWlLk6GJQsqaUBKTNV-1">
          <mxGeometry x="238" y="880" width="80" height="80" as="geometry" />
        </mxCell>
        <mxCell id="QFGm3sFwuiG0VtS_ELD2-49" value="YES" style="text;html=1;align=center;verticalAlign=middle;resizable=0;points=[];autosize=1;strokeColor=none;fillColor=none;" vertex="1" parent="WIyWlLk6GJQsqaUBKTNV-1">
          <mxGeometry x="345" y="428" width="50" height="30" as="geometry" />
        </mxCell>
        <mxCell id="QFGm3sFwuiG0VtS_ELD2-53" value="" style="edgeStyle=orthogonalEdgeStyle;rounded=0;orthogonalLoop=1;jettySize=auto;html=1;" edge="1" parent="WIyWlLk6GJQsqaUBKTNV-1" source="QFGm3sFwuiG0VtS_ELD2-50" target="QFGm3sFwuiG0VtS_ELD2-52">
          <mxGeometry relative="1" as="geometry" />
        </mxCell>
        <mxCell id="QFGm3sFwuiG0VtS_ELD2-50" value="Raise Exception" style="shape=parallelogram;perimeter=parallelogramPerimeter;whiteSpace=wrap;html=1;fixedSize=1;rounded=1;" vertex="1" parent="WIyWlLk6GJQsqaUBKTNV-1">
          <mxGeometry x="16.5" y="435" width="120" height="60" as="geometry" />
        </mxCell>
        <mxCell id="QFGm3sFwuiG0VtS_ELD2-52" value="end" style="ellipse;whiteSpace=wrap;html=1;rounded=1;" vertex="1" parent="WIyWlLk6GJQsqaUBKTNV-1">
          <mxGeometry x="36.5" y="565" width="80" height="80" as="geometry" />
        </mxCell>
        <mxCell id="QFGm3sFwuiG0VtS_ELD2-54" value="YES&lt;div&gt;&lt;br&gt;&lt;/div&gt;" style="text;html=1;align=center;verticalAlign=middle;resizable=0;points=[];autosize=1;strokeColor=none;fillColor=none;" vertex="1" parent="WIyWlLk6GJQsqaUBKTNV-1">
          <mxGeometry x="267" y="547" width="50" height="40" as="geometry" />
        </mxCell>
        <mxCell id="QFGm3sFwuiG0VtS_ELD2-55" value="NO" style="text;html=1;align=center;verticalAlign=middle;resizable=0;points=[];autosize=1;strokeColor=none;fillColor=none;" vertex="1" parent="WIyWlLk6GJQsqaUBKTNV-1">
          <mxGeometry x="156" y="433" width="40" height="30" as="geometry" />
        </mxCell>
      </root>
    </mxGraphModel>
  </diagram>
</mxfile>
